<svg width="163" height="39" viewBox="0 0 163 39" fill="none" xmlns="http://www.w3.org/2000/svg">
<g filter="url(#filter0_i_17_5)">
<path d="M5.472 38V22.88H1.92V16.928H5.472V9.632C5.472 6.88 6.256 4.64 7.824 2.912C9.424 1.152 11.728 0.271999 14.736 0.271999C15.632 0.271999 16.624 0.415999 17.712 0.704C18.832 0.959998 19.808 1.392 20.64 2L17.808 6.848C17.488 6.432 17.104 6.16 16.656 6.032C16.24 5.872 15.84 5.792 15.456 5.792C14.496 5.792 13.712 6.112 13.104 6.752C12.496 7.392 12.192 8.416 12.192 9.824V16.928H18.528V22.88H12.192V38H5.472ZM27.4354 17.024H34.1554V38H27.4354V17.024ZM27.2914 9.584C27.2914 8.592 27.6754 7.776 28.4434 7.136C29.2434 6.496 30.0914 6.176 30.9874 6.176C31.8834 6.176 32.6994 6.496 33.4354 7.136C34.2034 7.776 34.5874 8.592 34.5874 9.584C34.5874 10.576 34.2034 11.392 33.4354 12.032C32.6994 12.64 31.8834 12.944 30.9874 12.944C30.0914 12.944 29.2434 12.64 28.4434 12.032C27.6754 11.392 27.2914 10.576 27.2914 9.584ZM44.196 0.127998H50.916V38H44.196V0.127998ZM67.0526 17.024L67.5806 20.72L67.4846 20.432C68.3166 19.024 69.3566 17.936 70.6046 17.168C71.8526 16.368 73.3566 15.968 75.1166 15.968C76.8126 15.968 78.2366 16.32 79.3886 17.024C80.5406 17.728 81.2926 18.816 81.6446 20.288L81.4046 20.336C82.3006 19.024 83.3726 17.968 84.6206 17.168C85.9006 16.368 87.2286 15.968 88.6046 15.968C90.6846 15.968 92.3326 16.56 93.5486 17.744C94.7966 18.896 95.4366 20.4 95.4686 22.256V38H88.7966V25.04C88.7646 24.112 88.6206 23.36 88.3646 22.784C88.1086 22.176 87.5166 21.84 86.5886 21.776C85.5006 21.776 84.5726 22.16 83.8046 22.928C83.0686 23.664 82.5086 24.624 82.1246 25.808C81.7726 26.96 81.5966 28.16 81.5966 29.408V38H74.8766V25.04C74.8446 24.112 74.6686 23.36 74.3486 22.784C74.0606 22.176 73.4526 21.84 72.5246 21.776C71.4686 21.776 70.5726 22.16 69.8366 22.928C69.1326 23.664 68.5886 24.608 68.2046 25.76C67.8526 26.912 67.6766 28.096 67.6766 29.312V38H60.9566V17.024H67.0526ZM143.177 38.432L130.601 17.024H138.569L145.721 31.52L141.593 31.376L147.785 17.024H155.273L143.369 38.432H143.177Z" fill="white"/>
<path d="M126 36.9875H120.92C123.569 35.3185 125.527 32.749 126.432 29.7517C127.338 26.7544 127.131 23.531 125.849 20.6743C124.567 17.8176 122.297 15.5199 119.456 14.2037C116.615 12.8876 113.394 12.6416 110.386 13.5109C107.378 14.3803 104.785 16.3065 103.084 18.9354C101.383 21.5642 100.689 24.7188 101.129 27.8188C101.569 30.9188 103.113 33.7558 105.478 35.8079C107.843 37.8599 110.869 38.989 114 38.9875H126C126.265 38.9875 126.52 38.8822 126.707 38.6946C126.895 38.5071 127 38.2527 127 37.9875C127 37.7223 126.895 37.4679 126.707 37.2804C126.52 37.0929 126.265 36.9875 126 36.9875ZM103 25.9875C103 23.8119 103.645 21.6852 104.854 19.8762C106.063 18.0673 107.781 16.6574 109.791 15.8248C111.801 14.9923 114.012 14.7744 116.146 15.1989C118.28 15.6233 120.24 16.671 121.778 18.2093C123.317 19.7477 124.364 21.7077 124.789 23.8415C125.213 25.9753 124.995 28.187 124.163 30.197C123.33 32.207 121.92 33.925 120.111 35.1337C118.303 36.3424 116.176 36.9875 114 36.9875C111.084 36.9842 108.288 35.8242 106.226 33.762C104.163 31.6998 103.003 28.9039 103 25.9875ZM114 22.9875C114.594 22.9875 115.174 22.8116 115.667 22.4819C116.16 22.1523 116.545 21.6837 116.772 21.1356C116.999 20.5874 117.058 19.9842 116.943 19.4022C116.827 18.8203 116.541 18.2857 116.122 17.8662C115.702 17.4466 115.167 17.1609 114.585 17.0452C114.004 16.9294 113.4 16.9888 112.852 17.2159C112.304 17.4429 111.835 17.8274 111.506 18.3208C111.176 18.8141 111 19.3942 111 19.9875C111 20.7832 111.316 21.5462 111.879 22.1088C112.441 22.6714 113.205 22.9875 114 22.9875ZM114 18.9875C114.198 18.9875 114.391 19.0462 114.556 19.156C114.72 19.2659 114.848 19.4221 114.924 19.6048C115 19.7875 115.02 19.9886 114.981 20.1826C114.942 20.3766 114.847 20.5548 114.707 20.6946C114.567 20.8345 114.389 20.9297 114.195 20.9683C114.001 21.0069 113.8 20.9871 113.617 20.9114C113.435 20.8357 113.279 20.7075 113.169 20.5431C113.059 20.3786 113 20.1853 113 19.9875C113 19.7223 113.106 19.4679 113.293 19.2804C113.481 19.0929 113.735 18.9875 114 18.9875ZM117 31.9875C117 31.3942 116.824 30.8141 116.495 30.3208C116.165 29.8274 115.696 29.4429 115.148 29.2159C114.6 28.9888 113.997 28.9294 113.415 29.0452C112.833 29.1609 112.298 29.4466 111.879 29.8662C111.459 30.2857 111.174 30.8203 111.058 31.4022C110.942 31.9842 111.001 32.5874 111.229 33.1356C111.456 33.6837 111.84 34.1523 112.333 34.4819C112.827 34.8116 113.407 34.9875 114 34.9875C114.796 34.9875 115.559 34.6714 116.122 34.1088C116.684 33.5462 117 32.7832 117 31.9875ZM113 31.9875C113 31.7897 113.059 31.5964 113.169 31.4319C113.279 31.2675 113.435 31.1393 113.617 31.0636C113.8 30.9879 114.001 30.9681 114.195 31.0067C114.389 31.0453 114.567 31.1405 114.707 31.2804C114.847 31.4203 114.942 31.5984 114.981 31.7924C115.02 31.9864 115 32.1875 114.924 32.3702C114.848 32.5529 114.72 32.7091 114.556 32.819C114.391 32.9289 114.198 32.9875 114 32.9875C113.735 32.9875 113.481 32.8822 113.293 32.6946C113.106 32.5071 113 32.2527 113 31.9875ZM120 28.9875C120.594 28.9875 121.174 28.8116 121.667 28.4819C122.16 28.1523 122.545 27.6837 122.772 27.1356C122.999 26.5874 123.058 25.9842 122.943 25.4022C122.827 24.8203 122.541 24.2857 122.122 23.8662C121.702 23.4466 121.167 23.1609 120.585 23.0452C120.004 22.9294 119.4 22.9888 118.852 23.2159C118.304 23.4429 117.835 23.8274 117.506 24.3208C117.176 24.8141 117 25.3942 117 25.9875C117 26.7832 117.316 27.5462 117.879 28.1088C118.441 28.6714 119.205 28.9875 120 28.9875ZM120 24.9875C120.198 24.9875 120.391 25.0462 120.556 25.156C120.72 25.2659 120.848 25.4221 120.924 25.6048C121 25.7875 121.02 25.9886 120.981 26.1826C120.942 26.3766 120.847 26.5548 120.707 26.6946C120.567 26.8345 120.389 26.9297 120.195 26.9683C120.001 27.0069 119.8 26.9871 119.618 26.9114C119.435 26.8357 119.279 26.7075 119.169 26.5431C119.059 26.3786 119 26.1853 119 25.9875C119 25.7223 119.106 25.4679 119.293 25.2804C119.481 25.0929 119.735 24.9875 120 24.9875ZM108 22.9875C107.407 22.9875 106.827 23.1635 106.333 23.4931C105.84 23.8227 105.456 24.2913 105.229 24.8395C105.001 25.3876 104.942 25.9908 105.058 26.5728C105.174 27.1547 105.459 27.6893 105.879 28.1088C106.298 28.5284 106.833 28.8141 107.415 28.9299C107.997 29.0456 108.6 28.9862 109.148 28.7591C109.696 28.5321 110.165 28.1476 110.495 27.6542C110.824 27.1609 111 26.5809 111 25.9875C111 25.1919 110.684 24.4288 110.122 23.8662C109.559 23.3036 108.796 22.9875 108 22.9875ZM108 26.9875C107.802 26.9875 107.609 26.9289 107.445 26.819C107.28 26.7091 107.152 26.5529 107.076 26.3702C107.001 26.1875 106.981 25.9864 107.019 25.7924C107.058 25.5984 107.153 25.4203 107.293 25.2804C107.433 25.1405 107.611 25.0453 107.805 25.0067C107.999 24.9681 108.2 24.9879 108.383 25.0636C108.566 25.1393 108.722 25.2675 108.832 25.4319C108.942 25.5964 109 25.7897 109 25.9875C109 26.2527 108.895 26.5071 108.707 26.6946C108.52 26.8822 108.265 26.9875 108 26.9875Z" fill="white"/>
</g>
<defs>
<filter id="filter0_i_17_5" x="1.91998" y="0.127991" width="153.353" height="42.8595" filterUnits="userSpaceOnUse" color-interpolation-filters="sRGB">
<feFlood flood-opacity="0" result="BackgroundImageFix"/>
<feBlend mode="normal" in="SourceGraphic" in2="BackgroundImageFix" result="shape"/>
<feColorMatrix in="SourceAlpha" type="matrix" values="0 0 0 0 0 0 0 0 0 0 0 0 0 0 0 0 0 0 127 0" result="hardAlpha"/>
<feOffset dy="4"/>
<feGaussianBlur stdDeviation="2"/>
<feComposite in2="hardAlpha" operator="arithmetic" k2="-1" k3="1"/>
<feColorMatrix type="matrix" values="0 0 0 0 0 0 0 0 0 0 0 0 0 0 0 0 0 0 0.25 0"/>
<feBlend mode="normal" in2="shape" result="effect1_innerShadow_17_5"/>
</filter>
</defs>
</svg>
