<svg width="27" height="27" viewBox="0 0 27 27" fill="none" xmlns="http://www.w3.org/2000/svg">
<path d="M26.8975 10.3813C26.7714 9.97785 26.5188 9.62573 26.1771 9.37698C25.8354 9.12824 25.4226 8.99607 25 9.00002H17.375L14.9037 1.40752C14.7791 1.00036 14.5273 0.643859 14.1852 0.390348C13.8431 0.136836 13.4287 -0.000335732 13.0029 -0.00103491C12.5771 -0.00173409 12.1623 0.134076 11.8194 0.386463C11.4764 0.63885 11.2234 0.99452 11.0975 1.40127L8.6325 9.00002H0.999997C0.576167 8.99889 0.162934 9.13243 -0.180081 9.38138C-0.523097 9.63032 -0.778158 9.9818 -0.908467 10.3851C-1.03878 10.7884 -1.03759 11.2227 -0.905091 11.6253C-0.772589 12.0279 -0.515618 12.3779 -0.171253 12.625L6.01125 17.0725L3.64375 24.375C3.50894 24.7766 3.50728 25.211 3.63902 25.6137C3.77076 26.0163 4.02886 26.3657 4.375 26.61C4.71423 26.862 5.12556 26.998 5.54812 26.998C5.97068 26.998 6.38202 26.862 6.72125 26.61L13 22.0938L19.2787 26.61C19.6204 26.858 20.0317 26.9915 20.4539 26.9915C20.876 26.9914 21.2873 26.8578 21.6289 26.6098C21.9704 26.3617 22.2248 26.0119 22.3554 25.6105C22.4861 25.2091 22.4864 24.7766 22.3562 24.375L19.9812 17.0675L26.1675 12.6163C26.5136 12.372 26.7715 12.0225 26.9031 11.6198C27.0346 11.2171 27.0326 10.7828 26.8975 10.3813ZM13 2.01877L15.265 9.00002H10.735L13 2.01877ZM0.999997 11H7.98375L6.6625 15.07L0.999997 11ZM5.5425 25L7.71625 18.3013L11.2837 20.8688L5.5425 25ZM8.36375 16.3038L10.0862 11H15.9137L17.6325 16.2975L13 19.625L8.36375 16.3038ZM20.45 25L14.7125 20.875L18.28 18.3075L20.45 25ZM19.3337 15.0775L18.0162 11H25L19.3337 15.0775Z" fill="white"/>
</svg>
